<svg width="16" height="16" viewBox="0 0 16 16" fill="none" xmlns="http://www.w3.org/2000/svg">
<g clip-path="url(#clip0_117_6)">
<path d="M11.7419 10.344C12.7102 9.02269 13.1439 7.38449 12.9562 5.75715C12.7685 4.12981 11.9733 2.63334 10.7297 1.56713C9.48604 0.500921 7.88567 -0.0563966 6.24876 0.0066766C4.61184 0.0697497 3.05911 0.748562 1.90119 1.90731C0.743273 3.06605 0.0655718 4.61928 0.00366997 6.25623C-0.0582319 7.89319 0.500231 9.49316 1.56733 10.736C2.63443 11.9789 4.13147 12.7731 5.75894 12.9596C7.38641 13.1461 9.0243 12.7112 10.3449 11.742H10.3439C10.3739 11.782 10.4059 11.82 10.4419 11.857L14.2919 15.707C14.4794 15.8946 14.7338 16.0001 14.9991 16.0002C15.2643 16.0003 15.5188 15.895 15.7064 15.7075C15.8941 15.52 15.9995 15.2656 15.9996 15.0004C15.9997 14.7351 15.8944 14.4806 15.7069 14.293L11.8569 10.443C11.8212 10.4068 11.7827 10.3734 11.7419 10.343V10.344ZM11.9999 6.5C11.9999 7.22227 11.8577 7.93747 11.5813 8.60476C11.3049 9.27205 10.8997 9.87836 10.389 10.3891C9.87829 10.8998 9.27197 11.3049 8.60468 11.5813C7.93739 11.8577 7.22219 12 6.49992 12C5.77765 12 5.06245 11.8577 4.39516 11.5813C3.72787 11.3049 3.12156 10.8998 2.61083 10.3891C2.10011 9.87836 1.69498 9.27205 1.41858 8.60476C1.14218 7.93747 0.999921 7.22227 0.999921 6.5C0.999921 5.04131 1.57938 3.64236 2.61083 2.61091C3.64228 1.57946 5.04123 1 6.49992 1C7.95861 1 9.35756 1.57946 10.389 2.61091C11.4205 3.64236 11.9999 5.04131 11.9999 6.5V6.5Z" fill="black"/>
</g>
<defs>
<clipPath id="clip0_117_6">
<rect width="16" height="16" fill="white"/>
</clipPath>
</defs>
</svg>
